<svg xmlns="http://www.w3.org/2000/svg" viewBox="0 0 82 22">
  <defs>
    <style>.cls-1{fill:#000;}</style>
  </defs>
  <g>
    <g>
      <path class="cls-1" d="M26.71,4.47V.19l-5,2.71V2.74A2.65,2.65,0,0,0,18.79,0H2.91A2.61,2.61,0,0,0,0,2.74V7.05l7,3.73L0,14.55v4.31a2.6,2.6,0,0,0,2.91,2.71H18.79a2.64,2.64,0,0,0,2.91-2.71v-.22l5,2.73V17L15.06,10.78ZM11,12.91l8.61,4.63H2.38ZM19.57,4,11,8.63,2.38,4Z" />
      <path class="cls-1" d="M74.45,12.22V3.68h1.67v8.54Zm-4.56,0V3.68h1.67v8.54Zm6.67,9.35H80.1l-3.5-5.64H73.05ZM60.73,9.45V3.68h1.66V9.45Zm-2.9,10.92h7.49V1.19H57.83Zm2.9-2.48V12h1.66v5.92Zm-9.47-3.61h2.93V4.94H51.26ZM33.65,3.68H54.53V1.19h-4.6L50.85,0H47.27l-.88,1.19h-4.6L40.91,0H37.33l.92,1.19h-4.6Zm13.22,10.6h2.89V4.94H46.87ZM37,8.12V6.76h5.45V8.12ZM34.1,14.28H37V13.09h5.45v1.19h2.9V4.94H34.1Zm2.92-3V9.94h5.45v1.37ZM35,21.57h3.27L39.54,18H50.48l-.82,3.61H53l1.4-6.1H33.65V18h2.59Zm30.92,0h3.54l4.12-6.87h6.2V12.22h-.68v-11H74.45V0H71.56V1.19H66.92v11h-.68V14.7H70Z" />
    </g>
  </g>
</svg>